<svg width="1440" height="1024" viewBox="0 0 1440 1024" fill="none" xmlns="http://www.w3.org/2000/svg">
<g clip-path="url(#clip0)">
<rect width="1440" height="1024" fill="url(#paint0_linear)"/>
<path d="M0 850L40 858.694C80 867.062 160 884.938 240 906.306C320 928 400 954 480 962.694C560 971.062 640 962.938 720 945.306C800 928 880 902 960 889C1040 876 1120 876 1200 884.694C1280 893.063 1360 910.938 1400 919.306L1440 928V1058H1400C1360 1058 1280 1058 1200 1058C1120 1058 1040 1058 960 1058C880 1058 800 1058 720 1058C640 1058 560 1058 480 1058C400 1058 320 1058 240 1058C160 1058 80 1058 40 1058H0V850Z" fill="white"/>
<path d="M357.565 605.749C360.728 635.646 340.152 665.657 329.779 700.91C319.312 736.326 318.874 776.883 298.54 796.022C277.939 815.221 237.363 812.74 201.662 801.412C165.96 790.085 135.214 770.175 108.917 743.764C82.5273 717.515 60.7603 684.867 72.9153 663.813C85.2444 642.861 131.589 633.342 157.892 615.923C184.196 598.504 190.191 573.247 210.659 555.482C231.302 537.818 266.07 527.445 296.953 537.07C327.835 546.694 354.483 576.115 357.565 605.749Z" fill="#FEFEFE"/>
<path d="M738.938 302.955C766.411 315.164 782.113 347.989 807.457 374.599C832.894 401.371 867.799 422.03 874.206 449.208C880.533 476.649 858.096 510.548 830.436 535.803C802.775 561.058 770.159 577.729 734.138 587.298C698.211 597.028 659.053 599.554 646.898 578.501C634.917 557.348 649.846 512.453 647.912 480.964C645.979 449.475 627.103 431.654 621.952 405.046C616.976 378.336 625.377 343.04 649.153 321.107C672.93 299.175 711.733 290.807 738.938 302.955Z" fill="#FEFEFE"/>
<path d="M203.938 113.955C231.411 126.164 247.113 158.989 272.457 185.599C297.894 212.371 332.799 233.03 339.206 260.208C345.533 287.649 323.096 321.548 295.436 346.803C267.775 372.058 235.159 388.729 199.138 398.298C163.211 408.028 124.053 410.554 111.898 389.501C99.9173 368.348 114.846 323.453 112.912 291.964C110.979 260.475 92.1027 242.654 86.9523 216.046C81.976 189.336 90.3773 154.04 114.153 132.107C137.93 110.175 176.733 101.807 203.938 113.955Z" fill="#FEFEFE"/>
<path d="M1251.94 113.955C1279.41 126.164 1295.11 158.989 1320.46 185.599C1345.89 212.371 1380.8 233.03 1387.21 260.208C1393.53 287.649 1371.1 321.548 1343.44 346.803C1315.78 372.058 1283.16 388.729 1247.14 398.298C1211.21 408.028 1172.05 410.554 1159.9 389.501C1147.92 368.348 1162.85 323.453 1160.91 291.964C1158.98 260.475 1140.1 242.654 1134.95 216.046C1129.98 189.336 1138.38 154.04 1162.15 132.107C1185.93 110.175 1224.73 101.807 1251.94 113.955Z" fill="#FEFEFE"/>
<path d="M1458.57 561.749C1461.73 591.646 1441.15 621.657 1430.78 656.91C1420.31 692.326 1419.87 732.883 1399.54 752.021C1378.94 771.221 1338.36 768.74 1302.66 757.412C1266.96 746.085 1236.21 726.175 1209.92 699.764C1183.53 673.515 1161.76 640.867 1173.92 619.813C1186.24 598.861 1232.59 589.342 1258.89 571.923C1285.2 554.504 1291.19 529.247 1311.66 511.482C1332.3 493.818 1367.07 483.445 1397.95 493.07C1428.83 502.694 1455.48 532.115 1458.57 561.749Z" fill="#FEFEFE"/>
</g>
<defs>
<linearGradient id="paint0_linear" x1="80" y1="173" x2="1464" y2="945" gradientUnits="userSpaceOnUse">
<stop offset="0.221495" stop-color="#8C6FCF"/>
<stop offset="0.901602" stop-color="#5519DE"/>
</linearGradient>
<clipPath id="clip0">
<rect width="1440" height="1024" fill="white"/>
</clipPath>
</defs>
</svg>
